<?xml version="1.0" ?><svg viewBox="0 0 64 64" xmlns="http://www.w3.org/2000/svg"><g id="Graph"><path d="M60,51.81H57.67V23.65a1,1,0,0,0-1-1H48.44a1,1,0,0,0-1,1v3H40.22a1,1,0,0,0-1,1v3H32a1,1,0,0,0-1,1v3H23.78a1,1,0,0,0-1,1v3H15.56a1,1,0,0,0-1,1v3H7.33a1,1,0,0,0-1,1v8.16H4a1,1,0,0,0-1,1v3.93a1,1,0,0,0,1,1H60a1,1,0,0,0,1-1V52.81A1,1,0,0,0,60,51.81ZM55.67,24.65V51.81H49.44V27.65h0v-3Zm-14.45,4h6.22V51.81H41.22Zm-8.22,4h6.22V51.81H33Zm-2,4V51.81H24.78V39.65h0v-3Zm-14.44,4h6.22V51.81H16.56Zm-8.23,4h6.23v7.16H8.33ZM59,55.74H5V53.81H59Z"/><path d="M5,35.89a2.73,2.73,0,0,0,3.73,1L37,20.55l-.27,1A2.66,2.66,0,0,0,41.9,22.9l2-7.28a2.63,2.63,0,0,0-.28-2h0A2.67,2.67,0,0,0,42,12.36l-7.28-1.95a2.65,2.65,0,0,0-3.26,1.88,2.67,2.67,0,0,0,1.88,3.27l1,.26L6,32.15A2.73,2.73,0,0,0,5,35.89Zm2-2L37.37,16.34a1,1,0,0,0-.24-1.83l-3.3-.89a.65.65,0,0,1-.47-.81.66.66,0,0,1,.81-.47l7.28,1.95a.66.66,0,0,1,.47.82l-2,7.27A.66.66,0,1,1,38.69,22l.88-3.3a1,1,0,0,0-.36-1,1,1,0,0,0-1.1-.08L7.72,35.16A.74.74,0,0,1,7,33.88Z"/><path d="M52.14,6.26a1,1,0,0,0-1,1v.38a2.83,2.83,0,0,0,1,5.48A.84.84,0,0,1,53,14a.83.83,0,0,1-.82.83h0a.76.76,0,0,1-.57-.24A1,1,0,0,0,50.14,16a2.8,2.8,0,0,0,1,.64V17a1,1,0,0,0,2,0V16.6a2.83,2.83,0,0,0-1-5.48.83.83,0,0,1-.83-.83.83.83,0,0,1,1.43-.59,1,1,0,0,0,1.41,0,1,1,0,0,0,0-1.42,2.76,2.76,0,0,0-1-.64V7.26A1,1,0,0,0,52.14,6.26Z"/></g></svg>