<svg xmlns="http://www.w3.org/2000/svg" width="64" height="64" id="email"><path fill-rule="evenodd" d="M11 7.5c-.822 0-1.5.678-1.5 1.5v7.033l-1.313 1.082a.5.5 0 0 0-.181.381L8 17.961a.5.5 0 0 0 0 .004v.03a.5.5 0 0 0 0 .009.5.5 0 0 0 0 .012v10.142c0 .738.612 1.346 1.35 1.346H10v4.49H7.2V34c-.655 0-1.2.54-1.2 1.195v7.643c0 .655.545 1.193 1.2 1.193H10v5.998H7.5a.5.5 0 0 0-.5.5A5.47 5.47 0 0 0 12.473 56h39.054A5.47 5.47 0 0 0 57 50.53a.5.5 0 0 0-.5-.5H54V34.003h1.65c.738 0 1.35-.608 1.35-1.346V23.35c0-.296-.1-.568-.266-.791a.5.5 0 0 0-.35-.305c-.214-.145-.458-.25-.734-.25h-15.3V22c-.295 0-.554.114-.778.277a.5.5 0 0 0-.261.223 1.33 1.33 0 0 0-.311.846V24H26v-5.883a.5.5 0 0 0-.002-.273l-.004-.356a.5.5 0 0 0-.181-.38L24.5 16.024V11a.5.5 0 0 0 0-.016.5.5 0 0 0-.002-.035.5.5 0 0 0-.002-.015.5.5 0 0 0-.006-.034.5.5 0 0 0-.017-.062.5.5 0 0 0-.012-.033.5.5 0 0 0-.006-.014.5.5 0 0 0-.016-.031.5.5 0 0 0-.007-.014.5.5 0 0 0-.02-.03.5.5 0 0 0-.008-.01.5.5 0 0 0-.021-.028.5.5 0 0 0-.002-.002.5.5 0 0 0-.008-.01.5.5 0 0 0-.02-.02l-3-3a.5.5 0 0 0-.261-.138A.5.5 0 0 0 21 7.5H11zm0 1h9.5v1.512s-.006.353.18.72c.185.367.655.768 1.32.768h1.5v7.197L17 22.908l-6.5-4.21V9c0-.286.214-.5.5-.5zm10.5.707 1.293 1.293H22c-.335 0-.363-.091-.428-.219a.77.77 0 0 1-.072-.27v-.804zm-9.41.723v1h8v-1h-8zm0 2v1h10v-1h-10zm0 2v1h10v-1h-10zm0 2v1h10v-1h-10zm12.41 1.392.494.408-.494.32v-.728zm-15 .008v.719l-.488-.317.488-.402zm2.59.6v1h10v-1h-10zM9 18.916l7.729 5.008a.5.5 0 0 0 .542 0L25 18.916v8.57a.5.5 0 0 0 0 .01v2.926l-2.143-1.807a.5.5 0 0 0-.322-.119H9.35a.332.332 0 0 1-.35-.342v-9.238zM41.125 23h13.75L48 27.17 41.125 23zM40 23.486l7.74 4.696a.5.5 0 0 0 .52 0L56 23.486v9.168c0 .2-.146.346-.35.346H42.465a.5.5 0 0 0-.322.12L40 34.925v-2.63a.5.5 0 0 0 0-.01V23.485zM26 25h13v2.016H26V25zm0 3.016h13v3.978a.5.5 0 0 0 0 .01v3.999a.5.5 0 0 0 .822.384l2.826-2.383H50v13.012H14V44.03h3.883l2.303 1.86A.5.5 0 0 0 21 45.5v-2.957a.5.5 0 0 0 0-.012V35.19c0-.654-.545-1.195-1.2-1.195H14v-4.49h8.352l2.826 2.383A.5.5 0 0 0 26 31.5v-3.484zm-15 1.488h2v4.49h-2v-4.49zm40 4.5h2v16.025H11v-5.998h2v3.485a.5.5 0 0 0 .5.5h37a.5.5 0 0 0 .5-.5V34.004zM8 35h11l-5.5 3.43L8 35zm-1 .557 6.236 3.886a.5.5 0 0 0 .528 0L20 35.557v6.736a.5.5 0 0 0 0 .01v2.154l-1.627-1.312a.5.5 0 0 0-.314-.112H7.199c-.122-.002-.199-.08-.199-.195v-7.281zm1.1 15.472H27v.828c0 .996.796 1.827 1.785 1.827h6.43c.99 0 1.785-.831 1.785-1.827v-.828h18.9C55.644 53.264 53.836 55 51.527 55H12.473c-2.31 0-4.117-1.736-4.373-3.97zm19.9 0h8v.828c0 .476-.35.827-.785.827h-6.43c-.435 0-.785-.351-.785-.827v-.828z" color="#000" font-family="sans-serif" font-weight="400" overflow="visible" style="line-height:normal;text-indent:0;text-align:start;text-decoration-line:none;text-decoration-style:solid;text-decoration-color:#000;text-transform:none;block-progression:tb;white-space:normal;isolation:auto;mix-blend-mode:normal;solid-color:#000;solid-opacity:1"></path></svg>