<?xml version="1.0" encoding="UTF-8"?>
<svg id="Layer_2" data-name="Layer 2" xmlns="http://www.w3.org/2000/svg" viewBox="0 0 319.37 196.97">
  <defs>
    <style>
      .cls-1 {
        fill: #e5d4d3;
      }
    </style>
  </defs>
  <g id="Graphic_Elements" data-name="Graphic Elements">
    <path class="cls-1" d="m6.37,104.77c8.94-15.83,24.59-26.51,39.71-36.62,17.98-12.02,35.96-24.04,53.94-36.06,19.33-12.92,39.33-26.13,62.17-30.53,35.34-6.8,72.26,9.3,97.78,34.67,25.52,25.37,41.24,58.93,53.32,92.83,4.83,13.53,9.11,28.76,3.28,41.89-5.66,12.77-19.56,19.97-33.21,22.92-31.23,6.74-63.39-3.73-95.33-4.34-46.68-.9-96.53,18.73-138.16-2.42-30.01-15.24-64.29-45.5-43.48-82.35Z"/>
  </g>
</svg>