<?xml version="1.0" encoding="UTF-8"?>
<svg id="Layer_2" data-name="Layer 2" xmlns="http://www.w3.org/2000/svg" viewBox="0 0 315.13 226.15">
  <defs>
    <style>
      .cls-1 {
        fill: #b0bcaf;
      }
    </style>
  </defs>
  <g id="Graphic_Elements" data-name="Graphic Elements">
    <path class="cls-1" d="m314.35,63.38c-3.04,17.92-14.15,33.28-24.95,47.91-12.84,17.4-25.68,34.8-38.52,52.21-13.8,18.71-28.15,37.92-48.14,49.79-30.95,18.38-71.13,15.74-103.74.52-32.61-15.22-58.77-41.47-81.63-69.27C8.23,133.42-.95,120.55.08,106.21c1-13.93,11.63-25.42,23.48-32.82,27.09-16.93,60.9-17.98,91.16-28.22C158.95,30.21,199.2-5.15,245.53.63c33.4,4.17,75.9,21.02,68.82,62.75Z"/>
  </g>
</svg>