<?xml version="1.0" encoding="UTF-8"?>
<svg id="Layer_2" data-name="Layer 2" xmlns="http://www.w3.org/2000/svg" viewBox="0 0 246.61 228.39">
  <defs>
    <style>
      .cls-1 {
        fill: #b0bcaf;
      }
    </style>
  </defs>
  <g id="Graphic_Elements" data-name="Graphic Elements">
    <path class="cls-1" d="m240.43,80.09c-1.53-3.59-3.36-7.26-5.5-11.07-12.14-21.62-34.13-36.18-57.26-45.12-23.13-8.94-47.79-13-71.91-18.75C95.5,2.7,85.17-.08,74.63,0,52.56.17,31.84,13.31,19.14,31.35,6.43,49.39,1.02,71.76.12,93.8c-.8,19.79,2.13,40.48,13.24,56.88,5.94,8.77,13.94,15.91,21.85,22.96,12.33,10.98,24.65,21.95,36.98,32.93,6.65,5.92,13.4,11.91,21.35,15.94,26.08,13.21,65.71,2.54,86.28-15.77,4.93-4.39,10.12-8.42,15.43-12.35,10.19-7.54,20.65-14.98,28.79-24.8,6.93-8.37,12.27-17.92,15.92-28.15,8.32-23.29,9.24-40.85.48-61.34Z"/>
  </g>
</svg>